<?xml version="1.0" standalone="no"?>
<!DOCTYPE svg PUBLIC "-//W3C//DTD SVG 1.1//EN" "http://www.w3.org/Graphics/SVG/1.1/DTD/svg11.dtd" >
<svg xmlns="http://www.w3.org/2000/svg">
<metadata></metadata>
<defs>
<font id="inlovelight" horiz-adv-x="1214" >
<font-face units-per-em="2048" ascent="1638" descent="-410" />
<missing-glyph horiz-adv-x="409" />
<glyph unicode="&#xfb01;" horiz-adv-x="806" d="M20 961v36h224v183q0 123 86 209t209 86v-37q-107 0 -182.5 -75.5t-75.5 -182.5v-183h405v-960h49v-37h-135v37h49v924h-368v-924h47v-37h-133v37h49v924h-224zM649 1153v176h37v-176h-37z" />
<glyph unicode="&#xfb02;" horiz-adv-x="806" d="M20 961v36h224v183q0 123 86 209t209 86v-37q-107 0 -182.5 -75.5t-75.5 -182.5v-183h258v-36h-258v-924h47v-37h-133v37h49v924h-224zM600 0v37h49v1401h-49v37h86v-1438h49v-37h-135z" />
<glyph horiz-adv-x="2048" />
<glyph horiz-adv-x="2048" />
<glyph unicode="&#xd;" horiz-adv-x="2048" />
<glyph unicode=" "  horiz-adv-x="409" />
<glyph unicode="&#x09;" horiz-adv-x="409" />
<glyph unicode="&#xa0;" horiz-adv-x="409" />
<glyph unicode="!" horiz-adv-x="241" d="M102 0v174h37v-174h-37zM102 303v1174h37v-1174h-37z" />
<glyph unicode="&#x22;" horiz-adv-x="325" d="M82 1206v271h37v-271h-37zM207 1206v271h37v-271h-37z" />
<glyph unicode="#" horiz-adv-x="999" d="M20 551v37h250l80 301h-254v37h262l150 565l37 -8l-146 -557h299l150 565l37 -8l-148 -557h242v-37h-250l-80 -301h252v-37h-262l-147 -565l-37 8l145 557h-299l-147 -565l-37 8l145 557h-242zM311 588h299l78 301h-299z" />
<glyph unicode="$" horiz-adv-x="774" d="M41 412l37 4q9 -122 97.5 -204.5t211.5 -82.5q127 0 218 90.5t91 218.5q0 127 -81.5 207.5t-229.5 102.5q-142 22 -229.5 109.5t-87.5 217.5q0 126 87 213.5t214 95.5v103h37v-105q114 -6 197 -83t102 -189l-37 -4q-15 102 -95 172t-186 70q-118 0 -200.5 -78.5 t-82.5 -194.5q0 -111 80.5 -190t204.5 -101q162 -28 253 -117.5t91 -228.5q0 -138 -95.5 -239t-231.5 -107v-102h-37v102q-131 6 -225 98t-103 222z" />
<glyph unicode="%" horiz-adv-x="1052" d="M10 0v37h41l928 1440h63v-37h-41l-927 -1440h-64zM51 1241q0 97 70 166.5t168 69.5q97 0 166 -69.5t69 -166.5q0 -98 -69 -167.5t-166 -69.5q-98 0 -168 69.5t-70 167.5zM88 1241q0 -83 59 -142t142 -59q82 0 140 59t58 142q0 82 -58 140.5t-140 58.5q-83 0 -142 -58.5 t-59 -140.5zM528 236q0 98 69 166.5t167 68.5t166.5 -68.5t68.5 -166.5t-68.5 -167t-166.5 -69t-167 69t-69 167zM565 236q0 -83 58 -141t141 -58t141 58t58 141t-58 140.5t-141 57.5t-141 -57.5t-58 -140.5z" />
<glyph unicode="&#x26;" horiz-adv-x="1064" d="M72 416q0 135 74.5 246.5t197.5 162.5l-108 144q-62 80 -62 194q0 141 100.5 241.5t241.5 100.5t241.5 -100.5t100.5 -241.5h-37q0 126 -89.5 215.5t-215.5 89.5t-215.5 -89.5t-89.5 -215.5q0 -105 53 -176l598 -788q62 100 62 217h37q0 -132 -76 -248l100 -131h59v-37 h-75l-107 137q-61 -77 -152 -121.5t-194 -44.5q-184 0 -314 130t-130 315zM109 416q0 -169 119 -288.5t288 -119.5q96 0 181.5 43t142.5 117l-471 625q-117 -45 -188.5 -147t-71.5 -230z" />
<glyph unicode="'" horiz-adv-x="200" d="M82 1206v271h37v-271h-37z" />
<glyph unicode="(" horiz-adv-x="811" d="M41 737q0 150 58.5 287t157 236.5t235.5 158t288 58.5v-37q-143 0 -273 -56t-224 -150t-149.5 -224t-55.5 -273t55.5 -272.5t149.5 -224t224 -150t273 -55.5v-37q-151 0 -288 58.5t-235.5 157.5t-157 236t-58.5 287z" />
<glyph unicode=")" horiz-adv-x="811" d="M31 -2v37q114 0 221 35.5t193.5 100.5t151.5 151.5t100.5 193.5t35.5 221q0 190 -94 352t-256 256.5t-352 94.5v37q150 0 287 -58.5t236 -158t157.5 -236.5t58.5 -287t-58.5 -287t-157.5 -236t-236 -157.5t-287 -58.5z" />
<glyph unicode="*" horiz-adv-x="573" d="M41 1085l207 119l-207 119l20 33l207 -119v240h37v-240l207 119l20 -33l-206 -119l206 -119l-20 -32l-207 118v-239h-37v239l-207 -118z" />
<glyph unicode="+" horiz-adv-x="933" d="M61 584v37h388v387h36v-387h387v-37h-387v-387h-36v387h-388z" />
<glyph unicode="," horiz-adv-x="200" d="M82 117h37v-318h-37v318z" />
<glyph unicode="-" horiz-adv-x="1028" d="M61 479v37h906v-37h-906z" />
<glyph unicode="." horiz-adv-x="522" d="M82 178q0 74 52.5 126t127.5 52q74 0 126 -52t52 -126t-52 -126t-126 -52q-75 0 -127.5 52t-52.5 126z" />
<glyph unicode="/" horiz-adv-x="1615" d="M66 31l1441 1442l25 -25l-1442 -1442z" />
<glyph unicode="0" horiz-adv-x="962" d="M72 381v715q0 169 120 289t289 120t289.5 -120t120.5 -289v-715q0 -170 -120.5 -290t-289.5 -120t-289 120t-120 290zM109 381q0 -155 109 -264t263 -109t263.5 109t109.5 264v715q0 154 -109.5 263t-263.5 109t-263 -109t-109 -263v-715z" />
<glyph unicode="1" horiz-adv-x="278" d="M72 0v37h49v1403h-49v37h86v-1440h49v-37h-135z" />
<glyph unicode="2" horiz-adv-x="819" d="M41 0v31l614 919h-2q72 119 72 199q0 132 -93.5 225.5t-225.5 93.5t-225 -93.5t-93 -225.5h-37q0 148 103.5 252t251.5 104t252 -104t104 -252q0 -99 -78 -219l-598 -893h655v47h37v-84h-737z" />
<glyph unicode="3" horiz-adv-x="921" d="M41 385h37q0 -155 111 -266t266 -111q157 0 268 111t111 266q0 157 -111 268t-268 111h-133v37h133q141 0 237 98.5t96 235.5q0 138 -97.5 235.5t-235.5 97.5t-235 -97.5t-97 -235.5h-37q0 154 107.5 262t261.5 108t262 -108t108 -262q0 -121 -71 -218.5t-181 -134.5 q131 -39 214 -148.5t83 -248.5q0 -171 -122 -292.5t-293 -121.5q-170 0 -292 122t-122 292z" />
<glyph unicode="4" horiz-adv-x="886" d="M20 584v47l676 846h52v-856h118v-37h-118v-547h49v-37h-135v37h49v547h-691zM57 621h654v811q-106 -132 -325 -402.5t-329 -408.5z" />
<glyph unicode="5" horiz-adv-x="968" d="M61 406h37q0 -164 117 -281t281 -117t279.5 116.5t115.5 281.5q0 163 -115.5 279t-279.5 116q-174 0 -328 -105h-51v781h725v-86h-37v49h-651v-707h6q156 105 336 105t306 -126.5t126 -305.5q0 -180 -126 -307.5t-306 -127.5t-307.5 127.5t-127.5 307.5z" />
<glyph unicode="6" horiz-adv-x="921" d="M41 391q0 130 82 250l577 856l29 -20l-493 -732q106 66 225 66q173 0 296.5 -123.5t123.5 -296.5t-123.5 -296.5t-296.5 -123.5t-296.5 123.5t-123.5 296.5zM78 391q0 -158 112.5 -270.5t270.5 -112.5t270.5 112.5t112.5 270.5t-112.5 270.5t-270.5 112.5t-270.5 -112.5 t-112.5 -270.5z" />
<glyph unicode="7" horiz-adv-x="837" d="M41 1391v86h776v-39l-676 -1456l-32 16l667 1442h-698v-49h-37z" />
<glyph unicode="8" horiz-adv-x="911" d="M41 385q0 139 83 248.5t214 148.5q-111 37 -181.5 134t-70.5 219q0 154 108.5 262t262.5 108t262 -108t108 -262q0 -121 -71 -218.5t-181 -134.5q129 -39 212 -148.5t83 -248.5q0 -171 -121 -292.5t-292 -121.5q-172 0 -294 122t-122 292zM78 385q0 -155 111 -266 t268 -111q156 0 266.5 110.5t110.5 266.5q0 157 -110 268t-267 111h-17q-151 -6 -256.5 -116.5t-105.5 -262.5zM123 1135q0 -135 93 -232.5t226 -101.5h15q138 0 236 98t98 236t-98 235.5t-236 97.5t-236 -97.5t-98 -235.5z" />
<glyph unicode="9" horiz-adv-x="921" d="M51 1085q0 174 123 297t297 123q173 0 296.5 -123.5t123.5 -296.5q0 -148 -94 -266l-566 -839l-28 20l489 727q-101 -63 -221 -63q-175 0 -297.5 123t-122.5 298zM88 1085q0 -160 111.5 -272.5t271.5 -112.5q158 0 270.5 112.5t112.5 272.5q0 158 -112.5 270.5 t-270.5 112.5q-159 0 -271 -112t-112 -271z" />
<glyph unicode=":" horiz-adv-x="520" d="M82 178q0 74 52 126t126 52t126 -52t52 -126t-52 -126t-126 -52t-126 52t-52 126zM82 731q0 73 52 125.5t126 52.5t126 -52.5t52 -125.5t-52 -125.5t-126 -52.5t-126 52.5t-52 125.5z" />
<glyph unicode=";" horiz-adv-x="520" d="M82 731q0 73 52 125.5t126 52.5t126 -52.5t52 -125.5t-52 -125.5t-126 -52.5t-126 52.5t-52 125.5zM240 117h36v-318h-36v318z" />
<glyph unicode="&#x3c;" horiz-adv-x="759" d="M41 715v47l661 371l17 -33l-641 -361v-4l641 -360l-17 -33z" />
<glyph unicode="=" horiz-adv-x="778" d="M41 436v37h696v-37h-696zM41 709v36h696v-36h-696z" />
<glyph unicode="&#x3e;" horiz-adv-x="759" d="M41 375l641 360v4l-641 361l16 33l662 -371v-47l-662 -373z" />
<glyph unicode="?" horiz-adv-x="968" d="M61 1081q0 175 123.5 299.5t298.5 124.5t299.5 -124.5t124.5 -299.5q0 -104 -48 -192t-132 -152l-20 -16q-91 -72 -124 -110q-75 -87 -75 -197v-66h-37v66q0 50 14 95t31 75t52 65t55 51.5t63 49.5l21 16q73 59 118 141.5t45 173.5q0 160 -113.5 273.5t-273.5 113.5 t-272.5 -113.5t-112.5 -273.5h-37zM471 0v193h37v-193h-37z" />
<glyph unicode="@" horiz-adv-x="1464" d="M82 645q0 178 89 331t241.5 243t330.5 90q181 0 325.5 -78t229 -226t84.5 -341q0 -85 -20 -153t-52 -108.5t-69 -62t-74 -21.5q-55 0 -92 40.5t-37 111.5v18q-42 -83 -122 -132.5t-177 -49.5q-141 0 -239.5 99t-98.5 239q0 141 98.5 239.5t239.5 98.5q97 0 177 -49.5 t122 -132.5v137h37v-467q0 -53 26.5 -84t65.5 -31q68 0 123.5 81t55.5 227q0 182 -79.5 321.5t-216 213t-307.5 73.5q-168 0 -312 -85t-228 -229.5t-84 -312.5t84 -312t228 -228.5t312 -84.5q151 0 281.5 67.5t214.5 182.5l29 -20q-90 -122 -228 -194t-297 -72 q-133 0 -255.5 53t-211 141.5t-141.5 211t-53 255.5zM438 645q0 -125 87.5 -213t213.5 -88q125 0 212 88t87 213q0 126 -86.5 213.5t-212.5 87.5t-213.5 -87.5t-87.5 -213.5z" />
<glyph unicode="A" horiz-adv-x="1261" d="M10 0v37h47l1020 1403h-84v37h148v-1440h49v-37h-135v37h49v485h-651l-353 -485h54v-37h-144zM479 559h625v858z" />
<glyph unicode="B" horiz-adv-x="940" d="M72 0v37h55v1403h-49v37h416q145 0 247.5 -103.5t102.5 -249.5q0 -114 -66 -204.5t-170 -126.5q127 -37 209 -145t82 -245q0 -167 -119 -285t-286 -118h-422zM164 37h330q152 0 260 107t108 259q0 153 -108 261t-260 108h-330v-735zM164 809h330q129 0 221 92.5t92 222.5 t-92 223t-221 93h-330v-631z" />
<glyph unicode="C" horiz-adv-x="1464" d="M41 737q0 209 102.5 385t278.5 278.5t385 102.5q190 0 355.5 -87.5t271.5 -237.5l-29 -21q-100 143 -258 226t-340 83q-148 0 -283 -57.5t-233 -155.5t-155.5 -233t-57.5 -283t57.5 -283t155.5 -233t233 -155.5t283 -57.5q182 0 338.5 81.5t257.5 223.5l29 -20 q-108 -149 -271.5 -235.5t-353.5 -86.5q-209 0 -385 102.5t-278.5 278.5t-102.5 385z" />
<glyph unicode="D" horiz-adv-x="1366" d="M72 0v37h47v1403h-47v37h518q151 0 288 -58.5t235.5 -158t157 -236.5t58.5 -287q0 -151 -58 -287.5t-157 -235t-236 -156.5t-288 -58h-518zM156 37h434q143 0 273 55t224 148.5t149.5 223.5t55.5 273t-55.5 273t-149.5 224t-224 150t-273 56h-434v-1403z" />
<glyph unicode="E" horiz-adv-x="954" d="M72 0v37h49v1403h-49v37h841v-86h-36v49h-719v-684h612v49h37v-135h-37v49h-612v-682h719v47h36v-84h-841z" />
<glyph unicode="F" horiz-adv-x="905" d="M72 0v37h65v1403h-65v37h792v-86h-37v49h-653v-684h586v49h37v-135h-37v49h-586v-682h70v-37h-172z" />
<glyph unicode="G" horiz-adv-x="1562" d="M41 737q0 152 60.5 292.5t162.5 244.5t245.5 166.5t301.5 62.5q185 0 350.5 -88.5t272.5 -236.5q0 -1 9.5 -15.5t23.5 -36.5t24 -41l-33 -16q-10 22 -23.5 44t-21.5 33l-8 11q-100 142 -257 225.5t-337 83.5q-194 0 -362 -94.5t-269.5 -263t-101.5 -371.5 q0 -143 54.5 -277.5t158.5 -238.5q104 -105 238 -159t278 -54q143 0 278 54t240 159q76 76 129 176v252h-553v37h590v-686h-37v324q-47 -73 -104 -127q-112 -112 -252.5 -169t-290.5 -57q-151 0 -291 57t-250 169q-111 111 -168 250.5t-57 289.5z" />
<glyph unicode="H" horiz-adv-x="1067" d="M72 0v37h49v1403h-49v37h133v-37h-47v-684h753v684h-49v37h133v-37h-47v-1403h47v-37h-133v37h49v682h-753v-682h47v-37h-133z" />
<glyph unicode="I" horiz-adv-x="276" d="M72 0v37h49v1403h-49v37h133v-37h-47v-1403h47v-37h-133z" />
<glyph unicode="J" horiz-adv-x="815" d="M10 319h37q0 -129 91 -220t220 -91t220.5 91t91.5 220v1119h-49v37h133v-37h-47v-1119q0 -145 -102 -246.5t-247 -101.5t-246.5 101.5t-101.5 246.5z" />
<glyph unicode="K" horiz-adv-x="1056" d="M72 0v37h49v1401h-49v37h137v-37h-51v-670l647 670h-43v37h141v-37h-49l-661 -682h34q198 0 366.5 -96t268 -261.5t103.5 -361.5h51v-37h-133v37h45q-5 187 -99.5 343.5t-254 247.5t-347.5 91h-69v-682h53v-37h-139z" />
<glyph unicode="L" horiz-adv-x="827" d="M72 0v37h49v1401h-49v37h137v-37h-51v-1401h612v47h37v-84h-735z" />
<glyph unicode="M" horiz-adv-x="2045" d="M10 0v37h56l874 1401h-80v37h146v-1428q154 250 441 719.5t411 671.5h-68v37h135v-1438h49v-37h-137v37h51v1374q-163 -262 -458.5 -745.5t-407.5 -665.5h-53v1407l-856 -1370h65v-37h-168z" />
<glyph unicode="N" horiz-adv-x="1982" d="M10 0v37h53l875 1401h-80v37h148v-1428q154 250 441 719.5t411 671.5h-68v37h182v-37h-67q-148 -239 -442 -719.5t-441 -718.5h-53v1407l-858 -1370h67v-37h-168z" />
<glyph unicode="O" horiz-adv-x="1615" d="M41 737q0 208 103 384.5t279.5 279t385.5 102.5q208 0 384 -102.5t279 -279t103 -384.5t-103 -384.5t-279 -279t-384 -102.5q-209 0 -385.5 102.5t-279.5 279t-103 384.5zM78 737q0 -148 58 -283.5t156 -233t233.5 -155t283.5 -57.5q197 0 365 97.5t266 265.5t98 366 t-98 366t-266 265.5t-365 97.5q-148 0 -283.5 -57.5t-233.5 -155t-156 -233t-58 -283.5z" />
<glyph unicode="P" horiz-adv-x="858" d="M72 0v37h49v1401h-49v37h413q146 0 249.5 -102.5t103.5 -248.5t-103.5 -249t-249.5 -103h-327v-735h47v-37h-133zM158 809h327q131 0 223.5 92.5t92.5 222.5t-92.5 222t-223.5 92h-327v-629z" />
<glyph unicode="Q" horiz-adv-x="1613" d="M41 737q0 209 102.5 385t278.5 278.5t385 102.5t385 -102.5t278.5 -278.5t102.5 -385q0 -152 -56 -288.5t-157 -241.5l205 -205l-25 -25l-205 205q-105 -100 -241 -155.5t-287 -55.5q-209 0 -385 102.5t-278.5 278.5t-102.5 385zM78 737q0 -148 57.5 -283t155.5 -233 t233 -155.5t283 -57.5q143 0 272.5 52.5t229.5 146.5l-516 516l24 25l516 -517q96 100 149.5 230.5t53.5 275.5q0 148 -57.5 283t-155.5 233t-233 155.5t-283 57.5t-283 -57.5t-233 -155.5t-155.5 -233t-57.5 -283z" />
<glyph unicode="R" horiz-adv-x="989" d="M72 0v37h63v1401h-63v37h442q148 0 251 -103.5t103 -251.5q0 -147 -103.5 -250.5t-250.5 -103.5h-137q234 -76 384.5 -276t156.5 -453h51v-37h-133v37h45q-3 143 -59 274t-149.5 227.5t-222 157.5t-272.5 70h-6v-729h64v-37h-164zM172 803h342q132 0 224.5 93t92.5 224 q0 132 -92.5 225t-224.5 93h-342v-635z" />
<glyph unicode="S" horiz-adv-x="919" d="M41 350l37 4q10 -146 117.5 -246t253.5 -100q155 0 263.5 109t108.5 264q0 153 -98 248t-279 123q-167 25 -269.5 129t-102.5 258q0 155 110 259.5t267 104.5q143 0 247.5 -91.5t126.5 -229.5l-37 -4q-19 123 -114 205.5t-223 82.5q-141 0 -240.5 -94t-99.5 -233 t94.5 -233t247.5 -118q195 -29 301 -134t106 -273q0 -170 -119.5 -290t-289.5 -120q-161 0 -279 110t-129 269z" />
<glyph unicode="T" horiz-adv-x="874" d="M10 1391v86h854v-86h-37v49h-372v-1403h49v-37h-133v37h47v1403h-371v-49h-37z" />
<glyph unicode="U" horiz-adv-x="1011" d="M61 1440v37h138v-37h-52v-1075q0 -148 104.5 -252.5t252.5 -104.5q149 0 253.5 104.5t104.5 252.5v1075h-49v37h137v-37h-51v-1075q0 -163 -115.5 -278.5t-279.5 -115.5q-163 0 -278 115.5t-115 278.5v1075h-50z" />
<glyph unicode="V" horiz-adv-x="1261" d="M72 1440v37h135v-37h-49v-1387l1003 1387h-53v37h143v-37h-47l-1046 -1440h-37v1440h-49z" />
<glyph unicode="W" horiz-adv-x="2099" d="M72 1440v37h137v-37h-51v-1370l839 1407h52v-1420l940 1383h-70v37h170v-37h-59l-979 -1440h-39v1421q-159 -262 -448.5 -748.5t-401.5 -672.5h-41v1440h-49z" />
<glyph unicode="X" horiz-adv-x="1093" d="M10 0v37h56l456 700l-456 701h-56v37h160v-37h-57l434 -666l434 666h-59v37h161v-37h-55l-459 -701l459 -700h55v-37h-161v37h59l-434 663l-434 -663h57v-37h-160z" />
<glyph unicode="Y" horiz-adv-x="1060" d="M10 1438v37h148v-37h-47l421 -664l422 664h-45v37h142v-37h-50l-450 -707v-694h49v-37h-133v37h47v696l-448 705h-56z" />
<glyph unicode="Z" horiz-adv-x="999" d="M41 0v37l858 1403h-821v-49h-37v86h901v-39l-858 -1401h838v47h36v-84h-917z" />
<glyph unicode="[" horiz-adv-x="481" d="M102 0v1477h338v-37h-301v-1403h301v-37h-338z" />
<glyph unicode="\" horiz-adv-x="1615" d="M66 1448l24 25l1442 -1442l-25 -25z" />
<glyph unicode="]" horiz-adv-x="483" d="M41 0v37h303v1403h-303v37h340v-1477h-340z" />
<glyph unicode="^" horiz-adv-x="563" d="M20 948l236 529h51l236 -529l-33 -16l-227 508h-2q-37 -84 -114 -254t-114 -254z" />
<glyph unicode="_" horiz-adv-x="1173" d="M20 -6v37h1133v-37h-1133z" />
<glyph unicode="`" horiz-adv-x="1705" d="M444 1372l33 21l141 -238l-32 -20z" />
<glyph unicode="a" d="M41 498q0 143 70.5 264t191.5 191.5t264 70.5q163 0 297 -93t193 -241v307h84v-36h-47v-924h49v-37h-133v37h47v266q-59 -148 -192.5 -240t-297.5 -92q-143 0 -264 70.5t-191.5 192t-70.5 264.5zM78 498q0 -133 65.5 -246t178 -178.5t245.5 -65.5q99 0 190 39 t156.5 104.5t104.5 156.5t39 190q0 133 -65.5 245.5t-178.5 178t-246 65.5t-245.5 -65.5t-178 -178t-65.5 -245.5z" />
<glyph unicode="b" horiz-adv-x="1216" d="M72 0v37h49v1403h-47v37h84v-787q58 149 191 241.5t298 92.5q143 0 265 -70.5t193 -191.5t71 -264t-71 -264.5t-193 -192t-265 -70.5q-165 0 -298 92t-191 240v-266h47v-37h-133zM158 498q0 -133 65.5 -246t178 -178.5t245.5 -65.5q99 0 190.5 39t157.5 104.5t105 156.5 t39 190q0 133 -66 245.5t-179.5 178t-246.5 65.5q-197 0 -339 -136.5t-150 -332.5v-20z" />
<glyph unicode="c" horiz-adv-x="970" d="M41 498q0 138 70 259.5t192 195t264 73.5q101 0 198.5 -40t174.5 -116l-25 -24q-146 143 -348 143q-135 0 -248 -68t-177 -180.5t-64 -242.5q0 -132 65 -245t178 -179t246 -66q203 0 348 142l25 -25q-77 -75 -173.5 -114.5t-199.5 -39.5q-144 0 -265.5 72t-191 193 t-69.5 262z" />
<glyph unicode="d" d="M41 498q0 143 70.5 264t191.5 191.5t264 70.5q163 0 297 -93t193 -241v750h-47v37h84v-1440h49v-37h-133v37h47v266q-59 -148 -192.5 -240t-297.5 -92q-143 0 -264 70.5t-191.5 192t-70.5 264.5zM78 498q0 -133 65.5 -246t178 -178.5t245.5 -65.5q99 0 190 39 t156.5 104.5t104.5 156.5t39 190q0 133 -65.5 245.5t-178.5 178t-246 65.5t-245.5 -65.5t-178 -178t-65.5 -245.5z" />
<glyph unicode="e" horiz-adv-x="1136" d="M41 498q0 143 70.5 264t191.5 191.5t264 70.5t265 -73t193 -198.5t71 -273.5h-1018q6 -196 148.5 -333.5t340.5 -137.5q130 0 240 62t176 168l33 -21q-70 -112 -189.5 -179t-259.5 -67q-143 0 -264 70.5t-191.5 192t-70.5 264.5zM78 516h981q-3 131 -70 239.5t-179 170 t-243 61.5q-198 0 -340.5 -137.5t-148.5 -333.5z" />
<glyph unicode="f" horiz-adv-x="528" d="M20 961v36h224v183q0 123 86 209t209 86v-37q-107 0 -182.5 -75.5t-75.5 -182.5v-183h258v-36h-258v-924h47v-37h-133v37h49v924h-224z" />
<glyph unicode="g" horiz-adv-x="1204" d="M41 498q0 143 70.5 264t191.5 191.5t264 70.5q164 0 298.5 -93t193.5 -241v307h84v-36h-47v-861q0 -88 -41 -179.5t-108.5 -164t-163 -118.5t-197.5 -46q-156 0 -283 85.5t-186 224.5l33 16q56 -130 174 -209.5t262 -79.5q125 0 236 71.5t174 180.5t63 219v205 q-59 -149 -193.5 -241.5t-298.5 -92.5q-143 0 -264 70.5t-191.5 192t-70.5 264.5zM78 498q0 -133 65.5 -246t178 -178.5t245.5 -65.5q129 0 240.5 62t179 170t72.5 237v21q0 133 -66 245.5t-179.5 178t-246.5 65.5t-245.5 -65.5t-178 -178t-65.5 -245.5z" />
<glyph unicode="h" horiz-adv-x="1087" d="M72 0v37h49v1403h-49v37h86v-713q52 117 160 189.5t239 72.5q181 0 309.5 -128t128.5 -310v-551h47v-37h-133v37h49v551q0 166 -117.5 283.5t-283.5 117.5q-162 0 -280.5 -114.5t-118.5 -270.5v-567h47v-37h-133z" />
<glyph unicode="i" horiz-adv-x="278" d="M72 0v37h49v924h-49v36h86v-960h49v-37h-135zM121 1153v176h37v-176h-37z" />
<glyph unicode="j" horiz-adv-x="266" d="M-20 -383q67 36 107 102.5t40 147.5v1094h-47v36h84v-1130q0 -89 -46 -165t-122 -118zM127 1153v176h37v-176h-37z" />
<glyph unicode="k" horiz-adv-x="962" d="M72 0v37h49v1401h-49v37h86v-947l606 668h-45v37h141v-37h-45l-477 -526l577 -633h48v-37h-134v37h35l-553 606l-153 -170v-436h47v-37h-133z" />
<glyph unicode="l" horiz-adv-x="278" d="M72 0v37h49v1401h-49v37h86v-1438h49v-37h-135z" />
<glyph unicode="m" horiz-adv-x="1927" d="M72 0v37h49v924h-49v36h86v-233q52 117 160 189.5t239 72.5q147 0 262.5 -88t157.5 -225q40 137 155.5 225t262.5 88q181 0 309.5 -128t128.5 -310v-553h49v-37h-135v37h49v553q0 166 -117.5 283.5t-283.5 117.5q-162 0 -281 -116t-119 -269v-569h49v-37h-135v37h49v569 q0 154 -120 269.5t-281 115.5t-280 -116.5t-119 -268.5v-567h49v-37h-135z" />
<glyph unicode="n" horiz-adv-x="1107" d="M72 0v37h49v924h-49v36h86v-241q52 121 163 195.5t246 74.5q186 0 317.5 -131t131.5 -317v-541h47v-37h-133v37h49v541q0 170 -121 290.5t-291 120.5q-169 0 -289 -120.5t-120 -290.5v-541h49v-37h-135z" />
<glyph unicode="o" horiz-adv-x="1136" d="M41 498q0 143 70.5 264t191.5 191.5t264 70.5q144 0 266 -70.5t192.5 -191.5t70.5 -264t-70.5 -264.5t-192.5 -192t-266 -70.5q-143 0 -264 70.5t-191.5 192t-70.5 264.5zM78 498q0 -133 65.5 -246t178 -178.5t245.5 -65.5q134 0 247 65.5t179 178.5t66 246t-66 245.5 t-179 178t-247 65.5q-133 0 -245.5 -65.5t-178 -178t-65.5 -245.5z" />
<glyph unicode="p" horiz-adv-x="1216" d="M72 -442h49v1403h-47v36h84v-305q58 150 191 242t298 92q144 0 266 -70.5t192.5 -192t70.5 -265.5q0 -143 -70.5 -264.5t-192.5 -192t-266 -70.5q-165 0 -298 92t-191 240v-745h49v-37h-135v37zM158 477q0 -93 39.5 -179.5t105.5 -150t156.5 -101.5t187.5 -38 q134 0 247 65.5t179 178.5t66 246q0 134 -66 247t-179 178.5t-247 65.5q-130 0 -243 -64.5t-179.5 -173t-66.5 -233.5v-41z" />
<glyph unicode="q" horiz-adv-x="1204" d="M41 498q0 144 70.5 265.5t191.5 192t264 70.5q164 0 298.5 -92.5t193.5 -241.5v305h84v-36h-47v-1403h47v-37h-133v37h49v747q-59 -149 -193.5 -241.5t-298.5 -92.5q-143 0 -264 70.5t-191.5 192t-70.5 264.5zM78 498q0 -133 65.5 -246t178 -178.5t245.5 -65.5 q99 0 190.5 39t157.5 104.5t105 156.5t39 190q0 100 -39 191t-105.5 156.5t-157 104.5t-190.5 39q-133 0 -245.5 -65.5t-178 -178.5t-65.5 -247z" />
<glyph unicode="r" horiz-adv-x="505" d="M72 0v37h49v924h-49v36h86v-170q44 89 129 144t188 55v-37q-129 0 -223 -92t-94 -215v-645h47v-37h-133z" />
<glyph unicode="s" horiz-adv-x="655" d="M41 236l37 4q6 -98 79 -166t171 -68q103 0 176.5 74t73.5 178q0 102 -65.5 166.5t-186.5 83.5q-119 18 -192 90.5t-73 179.5q0 109 78 182.5t189 73.5q100 0 175 -65t87 -162l-37 -4q-10 83 -75 138.5t-150 55.5q-96 0 -163 -62.5t-67 -156.5q0 -88 66.5 -150.5 t165.5 -82.5q135 -25 209.5 -98.5t74.5 -188.5q0 -120 -83.5 -204.5t-202.5 -84.5q-113 0 -195.5 78t-91.5 189z" />
<glyph unicode="t" horiz-adv-x="358" d="M61 961v36h80v480h37v-480h170v-36h-170v-924h121v-37h-158v961h-80z" />
<glyph unicode="u" horiz-adv-x="1103" d="M61 961v36h86v-579q0 -170 120.5 -290t289.5 -120q170 0 291 120t121 290v573h37v-954h47v-37h-84v238q-53 -120 -164.5 -193.5t-247.5 -73.5q-121 0 -223.5 59.5t-162.5 162.5t-60 225v543h-50z" />
<glyph unicode="v" horiz-adv-x="974" d="M72 961v36h133v-36h-49v-900l710 900h-41v36h150v-36h-60l-759 -961h-37v961h-47z" />
<glyph unicode="w" horiz-adv-x="1597" d="M72 961v36h135v-36h-49v-900l661 936h39v-936l635 900h-61v36h165v-36h-61q-111 -158 -339.5 -480t-340.5 -481h-35v940l-700 -977v998h-49z" />
<glyph unicode="x" horiz-adv-x="878" d="M10 0v37h60l348 461l-348 463h-60v36h162v-36h-59l327 -435l326 435h-57v36h159v-36h-57l-350 -463l350 -461h57v-37h-159v37h57l-326 432l-327 -432h59v-37h-162z" />
<glyph unicode="y" horiz-adv-x="1003" d="M10 961v36h148v-36h-56l375 -920l420 920h-53v36h149v-36h-55l-625 -1367l-32 17l176 389h-2l-392 961h-53z" />
<glyph unicode="z" horiz-adv-x="880" d="M41 911v86h782v-39l-733 -921h713v47h37v-84h-797v37l733 924h-698v-50h-37z" />
<glyph unicode="{" horiz-adv-x="534" d="M41 705v63q90 0 153.5 58.5t63.5 140.5v272q0 97 69.5 166.5t166.5 69.5v-37q-82 0 -140.5 -58.5t-58.5 -140.5v-272q0 -85 -54 -150t-137 -82q80 -21 135.5 -86t55.5 -143v-273q0 -83 58.5 -140.5t140.5 -57.5v-37q-97 0 -166.5 68.5t-69.5 166.5v273q0 82 -63.5 140.5 t-153.5 58.5z" />
<glyph unicode="|" horiz-adv-x="282" d="M123 -102v1661h37v-1661h-37z" />
<glyph unicode="}" horiz-adv-x="534" d="M41 -2v37q83 0 141 57.5t58 140.5v273q0 84 54 149t136 80q-79 21 -134.5 86.5t-55.5 145.5v272q0 82 -58 140.5t-141 58.5v37q98 0 166.5 -69.5t68.5 -166.5v-272q0 -82 64.5 -140.5t153.5 -58.5v-63q-89 0 -153.5 -58.5t-64.5 -140.5v-273q0 -98 -68.5 -166.5 t-166.5 -68.5z" />
<glyph unicode="&#xa1;" horiz-adv-x="241" d="M102 0v1174h37v-1174h-37zM102 1300v177h37v-177h-37z" />
<glyph unicode="&#xa2;" horiz-adv-x="929" d="M41 739q0 189 130 324t318 143v142h37v-142q111 -4 205.5 -57t157.5 -141l-29 -21q-58 84 -151 133t-201 49q-178 0 -304 -125.5t-126 -304.5t126 -304.5t304 -125.5q107 0 199.5 48.5t152.5 131.5l29 -20q-64 -88 -158.5 -140.5t-204.5 -56.5v-141h-37v141 q-187 6 -317.5 142t-130.5 325z" />
<glyph unicode="&#xa3;" horiz-adv-x="1026" d="M61 719v37h91v303q0 172 122 295t295 123q172 0 294 -123t122 -295h-37q0 157 -111 269t-268 112q-158 0 -269.5 -112t-111.5 -269v-303h525v-37h-525v-682h752v-37h-838v37h50v682h-91z" />
<glyph unicode="&#xa5;" horiz-adv-x="1005" d="M10 1440v37h146v-37h-47l397 -664l393 664h-45v37h141v-37h-49l-403 -676h372v-37h-391v-205h391v-37h-391v-448h47v-37h-133v37h49v448h-393v37h393v205h-393v37h375l-406 676h-53z" />
<glyph unicode="&#xa7;" horiz-adv-x="847" d="M63 893q0 98 87 176q-29 54 -29 135q3 129 96 215t223 86h9q119 -3 206.5 -83t102.5 -197l-37 -4q-12 102 -90 173t-182 74h-9q-117 0 -199.5 -75.5t-82.5 -188.5q0 -39 10.5 -73t33 -62t45.5 -50t60 -44.5t63.5 -36.5t69.5 -35l95 -45q43 -20 61.5 -29t51.5 -26.5 t47.5 -29t35 -30.5t29.5 -37t16 -42t8 -52v-10q0 -53 -25.5 -101t-60.5 -69q41 -62 41 -147v-13q-3 -129 -96.5 -215t-222.5 -86h-8q-121 3 -209.5 84t-100.5 197l37 4q10 -103 88.5 -174t184.5 -74h8q115 0 197 75.5t85 188.5v11q0 54 -16 94.5t-55.5 74.5t-85 59.5 t-125.5 61.5l-55 25q-46 21 -69.5 31.5t-62 31t-58 35t-45 37.5t-37.5 45t-21 51.5t-9 63.5zM100 893q0 -37 13.5 -68t35 -55t67.5 -52.5t90.5 -51t125.5 -60.5q95 -43 151.5 -76t92.5 -71q29 16 50.5 56t21.5 87v10q-1 31 -12 56t-27 43t-46 37.5t-56.5 33.5t-71.5 35 q-11 5 -17 8l-94 45q-98 46 -158 83t-96 85q-70 -63 -70 -145z" />
<glyph unicode="&#xa8;" d="M274 1243q0 56 39.5 95.5t94.5 39.5q57 0 96 -39.5t39 -95.5t-39 -94.5t-96 -38.5q-56 0 -95 39t-39 94zM641 1243q0 56 39 95.5t94 39.5t94 -39.5t39 -95.5q0 -55 -38.5 -94t-94.5 -39t-94.5 39t-38.5 94z" />
<glyph unicode="&#xa9;" horiz-adv-x="866" d="M41 727q0 163 115 277t278 114t277 -114t114 -277t-114 -278t-277 -115t-278 115t-115 278zM78 727q0 -148 104 -252t252 -104t251 104t103 252t-103 251t-251 103t-252 -103t-104 -251zM190 727q0 100 71.5 171t172.5 71q121 0 197 -103l-29 -20q-60 86 -168 86 q-86 0 -146.5 -60t-60.5 -145q0 -86 60.5 -146.5t146.5 -60.5q108 0 168 86l29 -20q-76 -103 -197 -103q-101 0 -172.5 71.5t-71.5 172.5z" />
<glyph unicode="&#xaa;" horiz-adv-x="874" d="M61 1143q0 147 105.5 251.5t253.5 104.5q104 0 190 -54.5t131 -144.5v175h70v-37h-33v-604h35v-37h-106v37h34v149q-45 -91 -131 -145t-190 -54q-148 0 -253.5 105t-105.5 254zM98 1143q0 -133 95 -227.5t227 -94.5t226.5 89.5t94.5 217.5v27q0 127 -95 217t-226 90 q-132 0 -227 -93.5t-95 -225.5z" />
<glyph unicode="&#xab;" horiz-adv-x="565" d="M61 455v34l199 371l33 -16l-195 -363v-18l195 -361l-33 -16zM272 455v34l199 371l33 -16l-195 -363v-18l195 -361l-33 -16z" />
<glyph unicode="&#xac;" horiz-adv-x="1103" d="M20 719v37h992v-369h-37v332h-955z" />
<glyph unicode="&#xad;" horiz-adv-x="1028" d="M61 479v37h906v-37h-906z" />
<glyph unicode="&#xae;" horiz-adv-x="868" d="M41 737q0 163 115 278t278 115t278 -115t115 -278t-115 -277t-278 -114t-278 114t-115 277zM78 737q0 -148 104 -251t252 -103t252.5 103.5t104.5 250.5q0 148 -104.5 252.5t-252.5 104.5t-252 -104.5t-104 -252.5zM313 502v37h17v395h-17v37h140q49 0 82.5 -34.5 t33.5 -84.5t-33.5 -83.5t-82.5 -33.5h-19l123 -196h21v-37h-68v37h2l-145 229v-229h12v-37h-66zM367 772h86q34 0 56.5 23t22.5 57t-23 58t-56 24h-86v-162z" />
<glyph unicode="&#xaf;" d="M309 1227v37h537v-37h-537z" />
<glyph unicode="&#xb0;" horiz-adv-x="391" d="M61 1253q0 55 40 94t96 39q55 0 94 -39t39 -94q0 -57 -38.5 -96t-94.5 -39t-96 39t-40 96zM98 1253q0 -41 29.5 -69.5t69.5 -28.5t68 28.5t28 69.5q0 40 -28 68.5t-68 28.5t-69.5 -28.5t-29.5 -68.5z" />
<glyph unicode="&#xb4;" d="M563 1155l144 238l32 -21l-143 -237z" />
<glyph unicode="&#xb6;" horiz-adv-x="751" d="M41 1098q0 154 111.5 266.5t269.5 112.5h227v-37h-33v-1440h-36v1440h-142v-1440h-37v721q-153 12 -256.5 120t-103.5 257z" />
<glyph unicode="&#xb7;" horiz-adv-x="522" d="M82 434q0 74 52.5 126t127.5 52q74 0 126 -52t52 -126t-52 -126t-126 -52q-75 0 -127.5 52t-52.5 126z" />
<glyph unicode="&#xb8;" horiz-adv-x="970" d="M395 -217h37q0 -57 38.5 -96t94.5 -39t95.5 39t39.5 96q0 55 -45 94t-108 39v74h37v-37q65 -6 109 -55t44 -115q0 -72 -50.5 -122t-121.5 -50t-120.5 50t-49.5 122z" />
<glyph unicode="&#xba;" horiz-adv-x="837" d="M61 1143q0 148 105 252t254 104q148 0 252 -104t104 -252q0 -149 -104 -254t-252 -105q-149 0 -254 105t-105 254zM98 1143q0 -133 94 -227.5t228 -94.5q132 0 225.5 94.5t93.5 227.5q0 132 -93.5 225.5t-225.5 93.5q-133 0 -227.5 -93.5t-94.5 -225.5z" />
<glyph unicode="&#xbb;" horiz-adv-x="565" d="M61 102l195 361v18l-195 363l33 16l199 -371v-34l-199 -369zM272 102l195 361v18l-195 363l33 16l199 -371v-34l-199 -369z" />
<glyph unicode="&#xbf;" horiz-adv-x="968" d="M61 393q0 106 47.5 194.5t133.5 151.5q32 23 44.5 32t42 33t42.5 39.5t34 42.5t31 51t17.5 56.5t7.5 67.5v65h37v-65q0 -53 -15.5 -100.5t-34.5 -78.5t-57.5 -68t-60.5 -53.5t-68 -49.5q-78 -56 -121 -138.5t-43 -179.5q0 -160 112.5 -272.5t272.5 -112.5 q161 0 274 112.5t113 272.5h37q0 -175 -123.5 -298.5t-300.5 -123.5q-175 0 -298.5 123.5t-123.5 298.5zM461 1300v177h37v-177h-37z" />
<glyph unicode="&#xc0;" horiz-adv-x="1261" d="M10 0v37h47l1020 1403h-84v37h148v-1440h49v-37h-135v37h49v485h-651l-353 -485h54v-37h-144zM479 559h625v858zM995 1782l33 20l141 -237l-32 -21z" />
<glyph unicode="&#xc1;" horiz-adv-x="1261" d="M10 0v37h47l1020 1403h-84v37h148v-1440h49v-37h-135v37h49v485h-651l-353 -485h54v-37h-144zM479 559h625v858zM1020 1565l143 237l33 -20l-143 -238z" />
<glyph unicode="&#xc2;" horiz-adv-x="1261" d="M10 0v37h47l1020 1403h-84v37h148v-1440h49v-37h-135v37h49v485h-651l-353 -485h54v-37h-144zM479 559h625v858zM901 1608l154 155l155 -155l-24 -25l-131 131l-129 -131z" />
<glyph unicode="&#xc3;" horiz-adv-x="1261" d="M10 0v37h47l1020 1403h-84v37h148v-1440h49v-37h-135v37h49v485h-651l-353 -485h54v-37h-144zM479 559h625v858zM645 1614q2 4 5.5 10t16.5 22t29 28t43.5 22t59.5 10h8q55 -2 127 -39q8 -3 25 -10.5t27 -11.5t25 -8t29 -5h17q27 0 50 7t36.5 17.5t22.5 21t12 17.5l4 7 l32 -12q-2 -4 -5 -10.5t-16.5 -22.5t-30.5 -28.5t-46 -23t-63 -10.5h-13q-17 1 -34.5 5.5t-28.5 8.5t-31.5 13t-27.5 12q-72 33 -111 35h-8q-25 0 -46.5 -7.5t-34.5 -18t-22.5 -21t-13.5 -18.5l-4 -7z" />
<glyph unicode="&#xc4;" horiz-adv-x="1261" d="M10 0v37h47l1018 1401h-82v37h148v-1438h49v-37h-135v37h49v485h-647v4l-357 -489h54v-37h-144zM479 559h625v858zM573 1673q0 56 39.5 95.5t94.5 39.5q57 0 96 -39.5t39 -95.5t-39 -94.5t-96 -38.5q-56 0 -95 39t-39 94zM940 1673q0 56 39 95.5t94 39.5t94 -39.5 t39 -95.5q0 -55 -39 -94t-94 -39t-94 39t-39 94z" />
<glyph unicode="&#xc5;" horiz-adv-x="1261" d="M10 0v37h47l1018 1401h-82v37h148v-1438h49v-37h-135v37h49v485h-647v4l-357 -489h54v-37h-144zM479 559h625v858zM926 1663q0 55 39.5 94t95.5 39q55 0 94 -39t39 -94q0 -57 -38.5 -96t-94.5 -39t-95.5 39t-39.5 96zM963 1663q0 -41 29 -69.5t69 -28.5t68 28.5t28 69.5 q0 40 -28 68t-68 28t-69 -28t-29 -68z" />
<glyph unicode="&#xc6;" horiz-adv-x="1939" d="M10 0v37h47l1020 1403h-20v37h841v-86h-36v49h-719v-684h610v49h37v-133h-37v47h-610v-682h719v47h36v-84h-841v37h49v485h-649v4l-357 -489h56v-37h-146zM479 559h627v860z" />
<glyph unicode="&#xc7;" horiz-adv-x="1464" d="M41 737q0 209 102.5 385t278.5 278.5t385 102.5q190 0 355.5 -87.5t271.5 -237.5l-29 -21q-100 143 -258 226t-340 83q-148 0 -283 -57.5t-233 -155.5t-155.5 -233t-57.5 -283t57.5 -283t155.5 -233t233 -155.5t283 -57.5q182 0 338.5 81.5t257.5 223.5l29 -20 q-108 -149 -271.5 -235.5t-353.5 -86.5q-3 0 -8.5 1t-7.5 1v-26q65 -6 109 -55t44 -115q0 -72 -50.5 -122t-121.5 -50t-120.5 50t-49.5 122h37q0 -57 38.5 -96t94.5 -39t95.5 39t39.5 96q0 55 -45 94t-108 39v63q-147 10 -279 74t-227.5 165.5t-151 238t-55.5 286.5z" />
<glyph unicode="&#xc8;" horiz-adv-x="954" d="M72 0v37h49v1403h-49v37h841v-86h-36v49h-719v-684h612v49h37v-135h-37v49h-612v-682h719v47h36v-84h-841zM391 1782l33 20l141 -237l-33 -21z" />
<glyph unicode="&#xc9;" horiz-adv-x="954" d="M72 0v37h49v1403h-49v37h841v-86h-36v49h-719v-684h612v49h37v-135h-37v49h-612v-682h719v47h36v-84h-841zM410 1565l143 237l33 -20l-144 -238z" />
<glyph unicode="&#xca;" horiz-adv-x="954" d="M72 0v37h49v1403h-49v37h841v-86h-36v49h-719v-684h612v49h37v-135h-37v49h-612v-682h719v47h36v-84h-841zM346 1608l154 155l155 -155l-24 -25l-131 131l-129 -131z" />
<glyph unicode="&#xcb;" horiz-adv-x="954" d="M72 0v37h49v1403h-49v37h841v-86h-36v49h-719v-684h612v49h37v-135h-37v49h-612v-682h719v47h36v-84h-841zM162 1673q0 56 39 95.5t94 39.5q57 0 96 -39.5t39 -95.5t-39 -94.5t-96 -38.5q-55 0 -94 39t-39 94zM528 1673q0 56 39.5 95.5t94.5 39.5t94 -39.5t39 -95.5 q0 -55 -38.5 -94t-94.5 -39t-95 39t-39 94z" />
<glyph unicode="&#xcc;" horiz-adv-x="276" d="M51 1782l33 20l141 -237l-32 -21zM72 0v37h49v1403h-49v37h133v-37h-47v-1403h47v-37h-133z" />
<glyph unicode="&#xcd;" horiz-adv-x="276" d="M51 1565l144 237l32 -20l-143 -238zM72 0v37h49v1403h-49v37h133v-37h-47v-1403h47v-37h-133z" />
<glyph unicode="&#xce;" horiz-adv-x="276" d="M-16 1608l153 155l156 -155l-25 -25l-131 131l-129 -131zM72 0v37h49v1403h-49v37h133v-37h-47v-1403h47v-37h-133z" />
<glyph unicode="&#xcf;" horiz-adv-x="276" d="M-178 1653q0 56 39 95.5t94 39.5q57 0 96 -39.5t39 -95.5t-39 -94.5t-96 -38.5q-55 0 -94 39t-39 94zM72 0v37h49v1403h-49v37h133v-37h-47v-1403h47v-37h-133zM188 1653q0 56 39.5 95.5t94.5 39.5t94 -39.5t39 -95.5q0 -55 -38.5 -94t-94.5 -39t-95 39t-39 94z" />
<glyph unicode="&#xd0;" horiz-adv-x="1423" d="M-41 719v37h217v684h-47v37h518q151 0 288 -58.5t235.5 -158t157 -236.5t58.5 -287q0 -151 -58 -287.5t-157 -235t-236 -156.5t-288 -58h-518v37h47v682h-217zM213 37h434q143 0 273.5 55t224.5 148.5t149.5 223.5t55.5 273q0 190 -94 352t-256 256.5t-353 94.5h-434 v-684h428v-37h-428v-682z" />
<glyph unicode="&#xd1;" horiz-adv-x="1982" d="M10 0v37h53l875 1401h-80v37h148v-1428q154 250 441 719.5t411 671.5h-68v37h182v-37h-67q-148 -239 -442 -719.5t-441 -718.5h-53v1407l-858 -1370h67v-37h-168zM1178 1614l5 10t16 22t29 28t43.5 22t59.5 10h8q55 -2 127 -39q8 -3 25.5 -10.5t27.5 -11.5t25 -8t29 -5 h16q27 0 50 7t36.5 17.5t22.5 21t12 17.5l4 7l33 -12q-2 -4 -5.5 -10.5t-17 -22.5t-30 -28.5t-46 -23t-63.5 -10.5h-12q-17 1 -35 5.5t-28.5 8.5t-31.5 13l-28 12q-72 33 -111 35h-8q-25 0 -46.5 -7.5t-34.5 -18t-22.5 -21t-13.5 -18.5l-4 -7z" />
<glyph unicode="&#xd2;" horiz-adv-x="1615" d="M41 737q0 208 103 384.5t279.5 279t385.5 102.5q208 0 384 -102.5t279 -279t103 -384.5t-103 -384.5t-279 -279t-384 -102.5q-209 0 -385.5 102.5t-279.5 279t-103 384.5zM78 737q0 -148 58 -283.5t156 -233t233.5 -155t283.5 -57.5q197 0 365 97.5t266 265.5t98 366 t-98 366t-266 265.5t-365 97.5q-148 0 -283.5 -57.5t-233.5 -155t-156 -233t-58 -283.5zM721 1782l33 20l141 -237l-33 -21z" />
<glyph unicode="&#xd3;" horiz-adv-x="1615" d="M41 737q0 208 103 384.5t279.5 279t385.5 102.5q208 0 384 -102.5t279 -279t103 -384.5t-103 -384.5t-279 -279t-384 -102.5q-209 0 -385.5 102.5t-279.5 279t-103 384.5zM78 737q0 -148 58 -283.5t156 -233t233.5 -155t283.5 -57.5q197 0 365 97.5t266 265.5t98 366 t-98 366t-266 265.5t-365 97.5q-148 0 -283.5 -57.5t-233.5 -155t-156 -233t-58 -283.5zM719 1565l143 237l33 -20l-143 -238z" />
<glyph unicode="&#xd4;" horiz-adv-x="1615" d="M41 737q0 208 103 384.5t279.5 279t385.5 102.5q208 0 384 -102.5t279 -279t103 -384.5t-103 -384.5t-279 -279t-384 -102.5q-209 0 -385.5 102.5t-279.5 279t-103 384.5zM78 737q0 -148 58 -283.5t156 -233t233.5 -155t283.5 -57.5q197 0 365 97.5t266 265.5t98 366 t-98 366t-266 265.5t-365 97.5q-148 0 -283.5 -57.5t-233.5 -155t-156 -233t-58 -283.5zM653 1608l154 155l156 -155l-25 -25l-131 131l-129 -131z" />
<glyph unicode="&#xd5;" horiz-adv-x="1615" d="M41 737q0 208 103 384.5t279.5 279t385.5 102.5q208 0 384 -102.5t279 -279t103 -384.5t-103 -384.5t-279 -279t-384 -102.5q-209 0 -385.5 102.5t-279.5 279t-103 384.5zM78 737q0 -148 58 -283.5t156 -233t233.5 -155t283.5 -57.5q197 0 365 97.5t266 265.5t98 366 t-98 366t-266 265.5t-365 97.5q-148 0 -283.5 -57.5t-233.5 -155t-156 -233t-58 -283.5zM522 1614q2 4 5.5 10t16.5 22t29 28t43.5 22t59.5 10h8q55 -2 127 -39q8 -3 25.5 -10.5t27.5 -11.5t25 -8t29 -5h16q27 0 50 7t36.5 17.5t22.5 21t13 17.5l3 7l33 -12 q-2 -4 -5.5 -10.5t-17 -22.5t-30 -28.5t-46 -23t-63.5 -10.5h-12q-17 1 -35 5.5t-28.5 8.5t-31.5 13l-28 12q-72 33 -111 35h-8q-25 0 -46.5 -7.5t-34.5 -18t-22.5 -21t-13.5 -18.5l-4 -7z" />
<glyph unicode="&#xd6;" horiz-adv-x="1615" d="M41 737q0 208 103 384.5t279.5 279t385.5 102.5q208 0 384 -102.5t279 -279t103 -384.5t-103 -384.5t-279 -279t-384 -102.5q-209 0 -385.5 102.5t-279.5 279t-103 384.5zM78 737q0 -148 58 -283.5t156 -233t233.5 -155t283.5 -57.5q197 0 365 97.5t266 265.5t98 366 t-98 366t-266 265.5t-365 97.5q-148 0 -283.5 -57.5t-233.5 -155t-156 -233t-58 -283.5zM492 1673q0 56 39 95.5t94 39.5q57 0 96 -39.5t39 -95.5t-39 -94.5t-96 -38.5q-55 0 -94 39t-39 94zM858 1673q0 56 39 95.5t94 39.5t94 -39.5t39 -95.5q0 -55 -39 -94t-94 -39t-94 39 t-39 94z" />
<glyph unicode="&#xd7;" horiz-adv-x="638" d="M20 326l275 274l-275 277l25 24l274 -276l275 276l24 -24l-274 -277l274 -274l-24 -25l-275 274l-274 -274z" />
<glyph unicode="&#xd8;" horiz-adv-x="1615" d="M41 737q0 208 103 384.5t279.5 279t385.5 102.5q148 0 283 -54.5t239 -152.5l176 177l25 -25l-176 -176q103 -105 161 -243t58 -292q0 -208 -103 -384.5t-279 -279t-384 -102.5q-155 0 -294 57t-243 160l-182 -182l-24 25l182 182q-98 105 -152.5 239.5t-54.5 284.5z M78 737q0 -143 51 -271t145 -226l1031 1030q-98 93 -226.5 144.5t-269.5 51.5q-148 0 -283.5 -57.5t-233.5 -155t-156 -233t-58 -283.5zM299 215q100 -98 231.5 -152.5t278.5 -54.5q197 0 365 97.5t266 265.5t98 366q0 146 -55 277t-154 231z" />
<glyph unicode="&#xd9;" horiz-adv-x="1011" d="M61 1440v37h138v-37h-52v-1075q0 -148 104.5 -252.5t252.5 -104.5q149 0 253.5 104.5t104.5 252.5v1075h-49v37h137v-37h-51v-1075q0 -163 -115.5 -278.5t-279.5 -115.5q-163 0 -278 115.5t-115 278.5v1075h-50zM420 1782l33 20l141 -237l-33 -21z" />
<glyph unicode="&#xda;" horiz-adv-x="1011" d="M61 1440v37h138v-37h-52v-1075q0 -148 104.5 -252.5t252.5 -104.5q149 0 253.5 104.5t104.5 252.5v1075h-49v37h137v-37h-51v-1075q0 -163 -115.5 -278.5t-279.5 -115.5q-163 0 -278 115.5t-115 278.5v1075h-50zM451 1565l143 237l33 -20l-144 -238z" />
<glyph unicode="&#xdb;" horiz-adv-x="1011" d="M61 1440v37h138v-37h-52v-1075q0 -148 104.5 -252.5t252.5 -104.5q149 0 253.5 104.5t104.5 252.5v1075h-49v37h137v-37h-51v-1075q0 -163 -115.5 -278.5t-279.5 -115.5q-163 0 -278 115.5t-115 278.5v1075h-50zM352 1608l154 155l156 -155l-25 -25l-131 131l-129 -131z " />
<glyph unicode="&#xdc;" horiz-adv-x="1011" d="M61 1440v37h138v-37h-52v-1075q0 -148 104.5 -252.5t252.5 -104.5q149 0 253.5 104.5t104.5 252.5v1075h-49v37h137v-37h-51v-1075q0 -163 -115.5 -278.5t-279.5 -115.5q-163 0 -278 115.5t-115 278.5v1075h-50zM190 1673q0 56 39.5 95.5t94.5 39.5q57 0 96 -39.5 t39 -95.5t-39 -94.5t-96 -38.5q-56 0 -95 39t-39 94zM557 1673q0 56 39 95.5t94 39.5t94 -39.5t39 -95.5q0 -55 -38.5 -94t-94.5 -39t-94.5 39t-38.5 94z" />
<glyph unicode="&#xdd;" horiz-adv-x="1060" d="M10 1438v37h148v-37h-47l421 -664l422 664h-45v37h142v-37h-50l-450 -707v-694h49v-37h-133v37h47v696l-448 705h-56zM469 1565l143 237l33 -20l-143 -238z" />
<glyph unicode="&#xde;" horiz-adv-x="868" d="M82 0v37h49v1403h-49v37h137v-37h-51v-346h328q146 0 249 -102.5t103 -248.5t-103 -249t-249 -103h-328v-354h47v-37h-133zM168 428h328q130 0 222.5 92t92.5 223q0 130 -92 222t-223 92h-328v-629z" />
<glyph unicode="&#xdf;" horiz-adv-x="1079" d="M72 0v37h47v1098q0 154 108 262t262 108q153 0 261 -108.5t108 -261.5q0 -109 -57.5 -199t-151.5 -135q163 -9 276 -129.5t113 -286.5q0 -172 -121.5 -294t-293.5 -122t-294 122t-122 294h37q0 -157 111 -268t268 -111t267.5 111t110.5 268q0 158 -110.5 269.5 t-267.5 111.5h-134v37h13q132 5 225.5 101t93.5 231q0 138 -97.5 235.5t-234.5 97.5q-138 0 -235.5 -97.5t-97.5 -235.5v-1098h49v-37h-133z" />
<glyph unicode="&#xe0;" d="M41 498q0 143 70.5 264t191.5 191.5t264 70.5q163 0 297 -93t193 -241v307h84v-36h-47v-924h49v-37h-133v37h47v266q-59 -148 -192.5 -240t-297.5 -92q-143 0 -264 70.5t-191.5 192t-70.5 264.5zM78 498q0 -133 65.5 -246t178 -178.5t245.5 -65.5q99 0 190 39 t156.5 104.5t104.5 156.5t39 190q0 133 -65.5 245.5t-178.5 178t-246 65.5t-245.5 -65.5t-178 -178t-65.5 -245.5zM444 1372l33 21l141 -238l-32 -20z" />
<glyph unicode="&#xe1;" d="M41 498q0 143 70.5 264t191.5 191.5t264 70.5q163 0 297 -93t193 -241v307h84v-36h-47v-924h49v-37h-133v37h47v266q-59 -148 -192.5 -240t-297.5 -92q-143 0 -264 70.5t-191.5 192t-70.5 264.5zM78 498q0 -133 65.5 -246t178 -178.5t245.5 -65.5q99 0 190 39 t156.5 104.5t104.5 156.5t39 190q0 133 -65.5 245.5t-178.5 178t-246 65.5t-245.5 -65.5t-178 -178t-65.5 -245.5zM563 1155l144 238l32 -21l-143 -237z" />
<glyph unicode="&#xe2;" d="M41 498q0 143 70.5 264t191.5 191.5t264 70.5q163 0 297 -93t193 -241v307h84v-36h-47v-924h49v-37h-133v37h47v266q-59 -148 -192.5 -240t-297.5 -92q-143 0 -264 70.5t-191.5 192t-70.5 264.5zM78 498q0 -133 65.5 -246t178 -178.5t245.5 -65.5q99 0 190 39 t156.5 104.5t104.5 156.5t39 190q0 133 -65.5 245.5t-178.5 178t-246 65.5t-245.5 -65.5t-178 -178t-65.5 -245.5zM420 1198l153 156l156 -156l-24 -24l-132 131l-129 -131z" />
<glyph unicode="&#xe3;" d="M41 498q0 143 70.5 264t191.5 191.5t264 70.5q163 0 297 -93t193 -241v307h84v-36h-47v-924h49v-37h-133v37h47v266q-59 -148 -192.5 -240t-297.5 -92q-143 0 -264 70.5t-191.5 192t-70.5 264.5zM78 498q0 -133 65.5 -246t178 -178.5t245.5 -65.5q99 0 190 39 t156.5 104.5t104.5 156.5t39 190q0 133 -65.5 245.5t-178.5 178t-246 65.5t-245.5 -65.5t-178 -178t-65.5 -245.5zM322 1204l5 10t16 22t29 28t43.5 22t59.5 10h8q55 -2 127 -39q6 -3 25 -10.5t28 -11t24.5 -7.5t29.5 -5h16q44 0 75 17.5t40 34.5l10 17l33 -12 q-2 -4 -5.5 -10t-17 -22.5t-30 -29t-46 -22.5t-63.5 -10h-12q-17 1 -35 5.5t-28.5 8.5t-31.5 13l-28 12q-72 33 -111 35h-8q-25 0 -46.5 -7.5t-34.5 -18t-22.5 -21t-13.5 -17.5l-4 -8z" />
<glyph unicode="&#xe4;" d="M41 498q0 143 70.5 264t191.5 191.5t264 70.5q163 0 297 -93t193 -241v307h84v-36h-47v-924h49v-37h-133v37h47v266q-59 -148 -192.5 -240t-297.5 -92q-143 0 -264 70.5t-191.5 192t-70.5 264.5zM78 498q0 -133 65.5 -246t178 -178.5t245.5 -65.5q99 0 190 39 t156.5 104.5t104.5 156.5t39 190q0 133 -65.5 245.5t-178.5 178t-246 65.5t-245.5 -65.5t-178 -178t-65.5 -245.5zM274 1243q0 56 39.5 95.5t94.5 39.5q57 0 96 -39.5t39 -95.5t-39 -94.5t-96 -38.5q-56 0 -95 39t-39 94zM641 1243q0 56 39 95.5t94 39.5t94 -39.5t39 -95.5 q0 -55 -38.5 -94t-94.5 -39t-94.5 39t-38.5 94z" />
<glyph unicode="&#xe5;" d="M41 498q0 143 70.5 264t191.5 191.5t264 70.5q163 0 297 -93t193 -241v307h84v-36h-47v-924h49v-37h-133v37h47v266q-59 -148 -192.5 -240t-297.5 -92q-143 0 -264 70.5t-191.5 192t-70.5 264.5zM78 498q0 -133 65.5 -246t178 -178.5t245.5 -65.5q99 0 190 39 t156.5 104.5t104.5 156.5t39 190q0 133 -65.5 245.5t-178.5 178t-246 65.5t-245.5 -65.5t-178 -178t-65.5 -245.5zM430 1253q0 55 39.5 94t95.5 39q55 0 94 -39t39 -94q0 -57 -38.5 -96t-94.5 -39t-95.5 39t-39.5 96zM467 1253q0 -41 29 -69.5t69 -28.5t68.5 28.5t28.5 69.5 q0 40 -28.5 68.5t-68.5 28.5t-69 -28.5t-29 -68.5z" />
<glyph unicode="&#xe6;" horiz-adv-x="2158" d="M41 498q0 143 70.5 264t191.5 191.5t264 70.5q163 0 297 -93t193 -241v307h84v-36h-47v-285q55 154 190 251t305 97q143 0 265 -73t193 -198.5t71 -273.5h-1018q6 -196 148.5 -333.5t340.5 -137.5q130 0 240 62t176 168l33 -21q-70 -112 -189.5 -179t-259.5 -67 q-170 0 -305 97t-190 251v-282h49v-37h-133v37h47v266q-59 -148 -192.5 -240t-297.5 -92q-143 0 -264 70.5t-191.5 192t-70.5 264.5zM78 498q0 -133 65.5 -246t178 -178.5t245.5 -65.5q99 0 190 39t156.5 104.5t104.5 156.5t39 190q0 133 -65.5 245.5t-178.5 178t-246 65.5 t-245.5 -65.5t-178 -178t-65.5 -245.5zM1100 516h981q-3 131 -70 239.5t-179 170t-243 61.5q-198 0 -340.5 -137.5t-148.5 -333.5z" />
<glyph unicode="&#xe7;" horiz-adv-x="970" d="M41 498q0 138 70 259.5t192 195t264 73.5q101 0 198.5 -40t174.5 -116l-25 -24q-146 143 -348 143q-135 0 -248 -68t-177 -180.5t-64 -242.5q0 -132 65 -245t178 -179t246 -66q203 0 348 142l25 -25q-151 -148 -356 -154v-18q65 -6 109 -55t44 -115q0 -72 -50.5 -122 t-121.5 -50t-120.5 50t-49.5 122h37q0 -57 38.5 -96t94.5 -39t95.5 39t39.5 96q0 55 -45 94t-108 39v55q-139 6 -255.5 78.5t-183.5 191.5t-67 257z" />
<glyph unicode="&#xe8;" horiz-adv-x="1136" d="M41 498q0 143 70.5 264t191.5 191.5t264 70.5t265 -73t193 -198.5t71 -273.5h-1018q6 -196 148.5 -333.5t340.5 -137.5q130 0 240 62t176 168l33 -21q-70 -112 -189.5 -179t-259.5 -67q-143 0 -264 70.5t-191.5 192t-70.5 264.5zM78 516h981q-3 131 -70 239.5t-179 170 t-243 61.5q-198 0 -340.5 -137.5t-148.5 -333.5zM481 1372l33 21l141 -238l-32 -20z" />
<glyph unicode="&#xe9;" horiz-adv-x="1136" d="M41 498q0 143 70.5 264t191.5 191.5t264 70.5t265 -73t193 -198.5t71 -273.5h-1018q6 -196 148.5 -333.5t340.5 -137.5q130 0 240 62t176 168l33 -21q-70 -112 -189.5 -179t-259.5 -67q-143 0 -264 70.5t-191.5 192t-70.5 264.5zM78 516h981q-3 131 -70 239.5t-179 170 t-243 61.5q-198 0 -340.5 -137.5t-148.5 -333.5zM481 1155l144 238l32 -21l-143 -237z" />
<glyph unicode="&#xea;" horiz-adv-x="1136" d="M41 498q0 143 70.5 264t191.5 191.5t264 70.5t265 -73t193 -198.5t71 -273.5h-1018q6 -196 148.5 -333.5t340.5 -137.5q130 0 240 62t176 168l33 -21q-70 -112 -189.5 -179t-259.5 -67q-143 0 -264 70.5t-191.5 192t-70.5 264.5zM78 516h981q-3 131 -70 239.5t-179 170 t-243 61.5q-198 0 -340.5 -137.5t-148.5 -333.5zM414 1198l153 156l156 -156l-25 -24l-131 131l-129 -131z" />
<glyph unicode="&#xeb;" horiz-adv-x="1136" d="M41 498q0 143 70.5 264t191.5 191.5t264 70.5t265 -73t193 -198.5t71 -273.5h-1018q6 -196 148.5 -333.5t340.5 -137.5q130 0 240 62t176 168l33 -21q-70 -112 -189.5 -179t-259.5 -67q-143 0 -264 70.5t-191.5 192t-70.5 264.5zM78 516h981q-3 131 -70 239.5t-179 170 t-243 61.5q-198 0 -340.5 -137.5t-148.5 -333.5zM252 1243q0 56 39 95.5t94 39.5q57 0 96 -39.5t39 -95.5t-39 -94.5t-96 -38.5q-55 0 -94 39t-39 94zM618 1243q0 56 39.5 95.5t94.5 39.5t94 -39.5t39 -95.5q0 -55 -38.5 -94t-94.5 -39t-95 39t-39 94z" />
<glyph unicode="&#xec;" horiz-adv-x="278" d="M53 1372l33 21l141 -238l-32 -20zM72 0v37h49v924h-49v36h86v-960h49v-37h-135z" />
<glyph unicode="&#xed;" horiz-adv-x="278" d="M51 1155l144 238l32 -21l-143 -237zM72 0v37h49v924h-49v36h86v-960h49v-37h-135z" />
<glyph unicode="&#xee;" horiz-adv-x="278" d="M-18 1198l153 156l156 -156l-25 -24l-131 131l-129 -131zM72 0v37h49v924h-49v36h86v-960h49v-37h-135z" />
<glyph unicode="&#xef;" horiz-adv-x="278" d="M-176 1243q0 56 39 95.5t94 39.5q57 0 96 -39.5t39 -95.5t-39 -94.5t-96 -38.5q-55 0 -94 39t-39 94zM72 0v37h49v924h-49v36h86v-960h49v-37h-135zM190 1243q0 56 39.5 95.5t94.5 39.5t94 -39.5t39 -95.5q0 -55 -38.5 -94t-94.5 -39t-95 39t-39 94z" />
<glyph unicode="&#xf0;" horiz-adv-x="1216" d="M41 498q0 143 70.5 264t192 191.5t265.5 70.5q163 0 297 -93t193 -241v565h-344v37h344v185h37v-185h141v-37h-141v-1218h49v-37h-135v37h49v266q-59 -148 -192.5 -240t-297.5 -92q-219 0 -373.5 154.5t-154.5 372.5zM78 498q0 -100 39 -190.5t104.5 -156t156.5 -104.5 t191 -39q129 0 240 62t178 170t72 237v21q0 133 -65.5 245.5t-178.5 178t-246 65.5q-134 0 -247 -65.5t-178.5 -178t-65.5 -245.5z" />
<glyph unicode="&#xf1;" horiz-adv-x="1107" d="M72 0v37h49v924h-49v36h86v-241q52 121 163 195.5t246 74.5q186 0 317.5 -131t131.5 -317v-541h47v-37h-133v37h49v541q0 170 -121 290.5t-291 120.5q-169 0 -289 -120.5t-120 -290.5v-541h49v-37h-135zM268 1204q2 4 5.5 10t16.5 22t29 28t43.5 22t59.5 10h8 q55 -2 127 -39q6 -3 25 -10.5t28 -11t24.5 -7.5t29.5 -5h16q44 0 75 17.5t41 34.5l9 17l33 -12q-2 -4 -5.5 -10t-17 -22.5t-30 -29t-46 -22.5t-63.5 -10h-12q-17 1 -35 5.5t-28.5 8.5t-31.5 13l-28 12q-72 33 -111 35h-8q-25 0 -46.5 -7.5t-34.5 -18t-22.5 -21t-13.5 -17.5 l-4 -8z" />
<glyph unicode="&#xf2;" horiz-adv-x="1136" d="M41 498q0 143 70.5 264t191.5 191.5t264 70.5q144 0 266 -70.5t192.5 -191.5t70.5 -264t-70.5 -264.5t-192.5 -192t-266 -70.5q-143 0 -264 70.5t-191.5 192t-70.5 264.5zM78 498q0 -133 65.5 -246t178 -178.5t245.5 -65.5q134 0 247 65.5t179 178.5t66 246t-66 245.5 t-179 178t-247 65.5q-133 0 -245.5 -65.5t-178 -178t-65.5 -245.5zM481 1372l33 21l141 -238l-32 -20z" />
<glyph unicode="&#xf3;" horiz-adv-x="1136" d="M41 498q0 143 70.5 264t191.5 191.5t264 70.5q144 0 266 -70.5t192.5 -191.5t70.5 -264t-70.5 -264.5t-192.5 -192t-266 -70.5q-143 0 -264 70.5t-191.5 192t-70.5 264.5zM78 498q0 -133 65.5 -246t178 -178.5t245.5 -65.5q134 0 247 65.5t179 178.5t66 246t-66 245.5 t-179 178t-247 65.5q-133 0 -245.5 -65.5t-178 -178t-65.5 -245.5zM481 1155l144 238l32 -21l-143 -237z" />
<glyph unicode="&#xf4;" horiz-adv-x="1136" d="M41 498q0 143 70.5 264t191.5 191.5t264 70.5q144 0 266 -70.5t192.5 -191.5t70.5 -264t-70.5 -264.5t-192.5 -192t-266 -70.5q-143 0 -264 70.5t-191.5 192t-70.5 264.5zM78 498q0 -133 65.5 -246t178 -178.5t245.5 -65.5q134 0 247 65.5t179 178.5t66 246t-66 245.5 t-179 178t-247 65.5q-133 0 -245.5 -65.5t-178 -178t-65.5 -245.5zM414 1198l153 156l156 -156l-25 -24l-131 131l-129 -131z" />
<glyph unicode="&#xf5;" horiz-adv-x="1136" d="M41 498q0 143 70.5 264t191.5 191.5t264 70.5q144 0 266 -70.5t192.5 -191.5t70.5 -264t-70.5 -264.5t-192.5 -192t-266 -70.5q-143 0 -264 70.5t-191.5 192t-70.5 264.5zM78 498q0 -133 65.5 -246t178 -178.5t245.5 -65.5q134 0 247 65.5t179 178.5t66 246t-66 245.5 t-179 178t-247 65.5q-133 0 -245.5 -65.5t-178 -178t-65.5 -245.5zM283 1204l5 10t16 22t29 28t43.5 22t59.5 10h8q55 -2 127 -39q6 -3 25 -10.5t28 -11t24.5 -7.5t29.5 -5h16q44 0 75 17.5t41 34.5l9 17l33 -12q-2 -4 -5.5 -10t-17 -22.5t-30 -29t-46 -22.5t-63.5 -10h-12 q-17 1 -35 5.5t-28.5 8.5t-31.5 13l-28 12q-72 33 -111 35h-8q-25 0 -46.5 -7.5t-34.5 -18t-22.5 -21t-13.5 -17.5l-4 -8z" />
<glyph unicode="&#xf6;" horiz-adv-x="1136" d="M41 498q0 143 70.5 264t191.5 191.5t264 70.5q144 0 266 -70.5t192.5 -191.5t70.5 -264t-70.5 -264.5t-192.5 -192t-266 -70.5q-143 0 -264 70.5t-191.5 192t-70.5 264.5zM78 498q0 -133 65.5 -246t178 -178.5t245.5 -65.5q134 0 247 65.5t179 178.5t66 246t-66 245.5 t-179 178t-247 65.5q-133 0 -245.5 -65.5t-178 -178t-65.5 -245.5zM252 1243q0 56 39 95.5t94 39.5q57 0 96 -39.5t39 -95.5t-39 -94.5t-96 -38.5q-55 0 -94 39t-39 94zM618 1243q0 56 39.5 95.5t94.5 39.5t94 -39.5t39 -95.5q0 -55 -38.5 -94t-94.5 -39t-95 39t-39 94z" />
<glyph unicode="&#xf7;" horiz-adv-x="903" d="M41 584v37h821v-37h-821zM432 229v177h37v-177h-37zM432 803v176h37v-176h-37z" />
<glyph unicode="&#xf8;" horiz-adv-x="1134" d="M41 498q0 143 70.5 264t191.5 191.5t264 70.5q113 0 213 -45t174 -125l88 88l25 -24l-90 -91q117 -146 117 -329q0 -143 -70.5 -264.5t-192 -192t-264.5 -70.5q-185 0 -329 115l-91 -90l-24 24l88 89q-80 74 -125 175t-45 214zM78 498q0 -106 42.5 -201t117.5 -162 l690 692q-67 75 -161.5 117.5t-199.5 42.5q-133 0 -245.5 -65.5t-178 -178t-65.5 -245.5zM264 113q130 -105 303 -105q99 0 190 39t156.5 104.5t104.5 156.5t39 190q0 171 -107 303z" />
<glyph unicode="&#xf9;" horiz-adv-x="1103" d="M61 961v36h86v-579q0 -170 120.5 -290t289.5 -120q170 0 291 120t121 290v573h37v-954h47v-37h-84v238q-53 -120 -164.5 -193.5t-247.5 -73.5q-121 0 -223.5 59.5t-162.5 162.5t-60 225v543h-50zM465 1372l33 21l141 -238l-33 -20z" />
<glyph unicode="&#xfa;" horiz-adv-x="1103" d="M61 961v36h86v-579q0 -170 120.5 -290t289.5 -120q170 0 291 120t121 290v573h37v-954h47v-37h-84v238q-53 -120 -164.5 -193.5t-247.5 -73.5q-121 0 -223.5 59.5t-162.5 162.5t-60 225v543h-50zM465 1155l143 238l33 -21l-143 -237z" />
<glyph unicode="&#xfb;" horiz-adv-x="1103" d="M61 961v36h86v-579q0 -170 120.5 -290t289.5 -120q170 0 291 120t121 290v573h37v-954h47v-37h-84v238q-53 -120 -164.5 -193.5t-247.5 -73.5q-121 0 -223.5 59.5t-162.5 162.5t-60 225v543h-50zM397 1198l154 156l156 -156l-25 -24l-131 131l-129 -131z" />
<glyph unicode="&#xfc;" horiz-adv-x="1103" d="M61 961v36h86v-579q0 -170 120.5 -290t289.5 -120q170 0 291 120t121 290v573h37v-954h47v-37h-84v238q-53 -120 -164.5 -193.5t-247.5 -73.5q-121 0 -223.5 59.5t-162.5 162.5t-60 225v543h-50zM236 1243q0 56 39 95.5t94 39.5q57 0 96 -39.5t39 -95.5t-39 -94.5 t-96 -38.5q-55 0 -94 39t-39 94zM602 1243q0 56 39 95.5t94 39.5t94 -39.5t39 -95.5q0 -55 -39 -94t-94 -39t-94 39t-39 94z" />
<glyph unicode="&#xfd;" horiz-adv-x="1003" d="M10 961v36h148v-36h-56l375 -920l420 920h-53v36h149v-36h-55l-625 -1367l-32 17l176 389h-2l-392 961h-53zM463 1155l143 238l33 -21l-143 -237z" />
<glyph unicode="&#xfe;" horiz-adv-x="1216" d="M72 -442h49v1882h-47v37h84v-785q58 150 191 242t298 92q144 0 266 -70.5t192.5 -192t70.5 -265.5q0 -143 -70.5 -264.5t-192.5 -192t-266 -70.5q-165 0 -298 92t-191 240v-745h49v-37h-135v37zM158 477q0 -128 67 -236.5t179.5 -170.5t242.5 -62q134 0 247 65.5 t179 178.5t66 246q0 134 -66 247t-179 178.5t-247 65.5q-130 0 -242.5 -62.5t-179.5 -171.5t-67 -237v-41z" />
<glyph unicode="&#xff;" horiz-adv-x="1003" d="M10 961v36h148v-36h-56l375 -920l420 920h-53v36h149v-36h-55l-625 -1367l-32 17l176 389h-2l-392 961h-53zM186 1243q0 56 39 95.5t94 39.5q57 0 96.5 -39.5t39.5 -95.5t-39.5 -94.5t-96.5 -38.5q-55 0 -94 39t-39 94zM553 1243q0 56 39 95.5t94 39.5t94 -39.5t39 -95.5 q0 -55 -38.5 -94t-94.5 -39t-94.5 39t-38.5 94z" />
<glyph unicode="&#x152;" horiz-adv-x="2084" d="M41 737q0 208 103 384.5t279.5 279t385.5 102.5q242 0 442 -141v78h-49v37h842v-86h-37v49h-719v-684h613v49h36v-135h-36v49h-613v-682h719v47h37v-84h-842v37h49v74q-199 -140 -442 -140q-209 0 -385.5 102.5t-279.5 279t-103 384.5zM78 737q0 -148 58 -283.5t156 -233 t233.5 -155t283.5 -57.5q248 0 442 148v1161q-198 149 -442 149q-148 0 -283.5 -57.5t-233.5 -155t-156 -233t-58 -283.5z" />
<glyph unicode="&#x153;" horiz-adv-x="2166" d="M41 498q0 143 70.5 264t191.5 191.5t264 70.5q187 0 331.5 -116.5t184.5 -295.5q39 178 183 295t331 117q143 0 265 -73t193 -198.5t71 -273.5h-1018q6 -196 148.5 -333.5t340.5 -137.5q130 0 240 62t176 168l33 -21q-70 -112 -189.5 -179t-259.5 -67q-187 0 -331 117 t-183 295q-40 -179 -184.5 -295.5t-331.5 -116.5q-143 0 -264 70.5t-191.5 192t-70.5 264.5zM78 498q0 -133 65.5 -246t178 -178.5t245.5 -65.5q134 0 247 65.5t179 178.5t66 246t-66 245.5t-179 178t-247 65.5q-133 0 -245.5 -65.5t-178 -178t-65.5 -245.5zM1108 516h981 q-3 131 -70 239.5t-179 170t-243 61.5q-198 0 -340.5 -137.5t-148.5 -333.5z" />
<glyph unicode="&#x178;" horiz-adv-x="1060" d="M10 1438v37h148v-37h-47l421 -664l422 664h-45v37h142v-37h-50l-450 -707v-694h49v-37h-133v37h47v696l-448 705h-56zM215 1673q0 56 39 95.5t94 39.5q57 0 96 -39.5t39 -95.5t-39 -94.5t-96 -38.5q-56 0 -94.5 39t-38.5 94zM582 1673q0 56 39 95.5t94 39.5t94 -39.5 t39 -95.5q0 -55 -39 -94t-94 -39t-94 39t-39 94z" />
<glyph unicode="&#x2c6;" d="M420 1198l153 156l156 -156l-24 -24l-132 131l-129 -131z" />
<glyph unicode="&#x2dc;" horiz-adv-x="1107" d="M268 1204q2 4 5.5 10t16.5 22t29 28t43.5 22t59.5 10h8q55 -2 127 -39q6 -3 25 -10.5t28 -11t24.5 -7.5t29.5 -5h16q44 0 75 17.5t41 34.5l9 17l33 -12q-2 -4 -5.5 -10t-17 -22.5t-30 -29t-46 -22.5t-63.5 -10h-12q-17 1 -35 5.5t-28.5 8.5t-31.5 13l-28 12 q-72 33 -111 35h-8q-25 0 -46.5 -7.5t-34.5 -18t-22.5 -21t-13.5 -17.5l-4 -8z" />
<glyph unicode="&#x2000;" horiz-adv-x="904" />
<glyph unicode="&#x2001;" horiz-adv-x="1808" />
<glyph unicode="&#x2002;" horiz-adv-x="904" />
<glyph unicode="&#x2003;" horiz-adv-x="1808" />
<glyph unicode="&#x2004;" horiz-adv-x="602" />
<glyph unicode="&#x2005;" horiz-adv-x="452" />
<glyph unicode="&#x2006;" horiz-adv-x="301" />
<glyph unicode="&#x2007;" horiz-adv-x="301" />
<glyph unicode="&#x2008;" horiz-adv-x="226" />
<glyph unicode="&#x2009;" horiz-adv-x="361" />
<glyph unicode="&#x200a;" horiz-adv-x="100" />
<glyph unicode="&#x2010;" horiz-adv-x="1028" d="M61 479v37h906v-37h-906z" />
<glyph unicode="&#x2011;" horiz-adv-x="1028" d="M61 479v37h906v-37h-906z" />
<glyph unicode="&#x2012;" horiz-adv-x="1028" d="M61 479v37h906v-37h-906z" />
<glyph unicode="&#x2013;" horiz-adv-x="1028" d="M61 457v37h906v-37h-906z" />
<glyph unicode="&#x2014;" horiz-adv-x="1826" d="M61 457v37h1704v-37h-1704z" />
<glyph unicode="&#x2018;" horiz-adv-x="200" d="M82 1206v271h37v-271h-37z" />
<glyph unicode="&#x2019;" horiz-adv-x="200" d="M82 1206v271h37v-271h-37z" />
<glyph unicode="&#x201a;" horiz-adv-x="200" d="M82 117h37v-318h-37v318z" />
<glyph unicode="&#x201c;" horiz-adv-x="325" d="M82 1206v271h37v-271h-37zM207 1206v271h37v-271h-37z" />
<glyph unicode="&#x201d;" horiz-adv-x="325" d="M82 1206v271h37v-271h-37zM207 1206v271h37v-271h-37z" />
<glyph unicode="&#x201e;" horiz-adv-x="325" d="M82 117h37v-318h-37v318zM207 117h37v-318h-37v318z" />
<glyph unicode="&#x2022;" horiz-adv-x="641" d="M61 481q0 107 75.5 183.5t182.5 76.5t184 -76.5t77 -183.5t-76.5 -182.5t-184.5 -75.5q-107 0 -182.5 75.5t-75.5 182.5z" />
<glyph unicode="&#x2026;" horiz-adv-x="1413" d="M82 178q0 74 52 126t126 52t126 -52t52 -126t-52 -126t-126 -52t-126 52t-52 126zM526 178q0 74 53 126t128 52q73 0 125.5 -52t52.5 -126t-52.5 -126t-125.5 -52q-75 0 -128 52t-53 126zM973 178q0 74 52.5 126t127.5 52q73 0 125.5 -52t52.5 -126t-52.5 -126 t-125.5 -52q-75 0 -127.5 52t-52.5 126z" />
<glyph unicode="&#x202f;" horiz-adv-x="361" />
<glyph unicode="&#x2039;" horiz-adv-x="354" d="M61 455v34l199 371l33 -16l-195 -363v-18l195 -361l-33 -16z" />
<glyph unicode="&#x203a;" horiz-adv-x="354" d="M61 102l195 361v18l-195 363l33 16l199 -371v-34l-199 -369z" />
<glyph unicode="&#x205f;" horiz-adv-x="452" />
<glyph unicode="&#x20ac;" horiz-adv-x="1662" d="M41 600v37h195q-7 58 -7 100q0 44 7 105h-195v37h201q50 269 261.5 446.5t491.5 177.5q192 0 356.5 -87t270.5 -238l-29 -21q-100 143 -257.5 226t-340.5 83q-265 0 -465.5 -166.5t-250.5 -420.5h962v-37h-969q-6 -52 -6 -105q0 -51 6 -100h969v-37h-962 q48 -255 249.5 -423.5t466.5 -168.5q181 0 338.5 82t257.5 223l29 -20q-104 -149 -269 -235.5t-356 -86.5q-185 0 -347 82.5t-268.5 226t-137.5 320.5h-201z" />
<glyph unicode="&#x2122;" horiz-adv-x="1359" d="M20 1425v52h447v-52h-37v15h-168v-684h19v-37h-74v37h18v684h-168v-15h-37zM530 719v37h19v721h41l344 -695l352 693h41v-719h19v-37h-78v37h22v641l-354 -678h-10l-340 678v-641h18v-37h-74z" />
<glyph unicode="&#xe000;" horiz-adv-x="993" d="M0 0v993h993v-993h-993z" />
</font>
</defs>
</svg>
